<svg width="422" height="62" xmlns="http://www.w3.org/2000/svg" xmlns:xlink="http://www.w3.org/1999/xlink"><defs><path id="a" d="M0 47h421.669V.977H0z"/></defs><g fill="none" fill-rule="evenodd"><path fill="#020202" d="M47.864 15.644v39.229H66.93l3.015-6.102H54.554V15.644zM93.837 15.644L82.867 41.76 71.841 15.644h-7.654L82.33 55.411h.857l18.09-39.767z"/><g transform="translate(0 14.023)"><path d="M14.026 18.104c-4.956-2.14-6.94-3.69-7.04-6.315-.104-2.623 1.733-4.87 5.857-4.87 2.244 0 4.824.943 6.862 2.1l2.678-5.42C20.008 2.145 16.393.976 12.771.976 4.583.977.08 6.278.301 11.95c.182 4.71 2.781 8.241 9.742 11.133 6.312 2.621 7.556 4.332 7.661 7.063.106 2.727-1.62 5.136-5.74 5.136-2.979 0-6.295-1.088-9.228-2.89L0 37.926c3.443 2.097 7.743 3.563 11.991 3.563 8.08 0 12.74-5.406 12.494-11.718-.2-5.139-2.568-8.296-10.459-11.668" fill="#020202"/><mask id="b" fill="#fff"><use xlink:href="#a"/></mask><path fill="#020202" mask="url(#b)" d="M31.762 40.85h6.691V1.621h-6.691zM106.727 1.621V40.85h23.925v-6.102h-17.234V23.886h10.614l2.908-5.888h-13.522V7.723h17.234V1.621zM157.939 25.06c4.87-2.14 7.654-6.259 7.654-11.347 0-6.955-4.925-12.36-16.056-12.36-3.96 0-7.225.268-10.327.644V40.85h6.689V26.666a94.15 94.15 0 0 0 3.906.107c.75 0 1.392 0 2.087-.053l8.562 14.13h7.76l-10.275-15.79zm-8.188-3.798c-1.285 0-2.622-.057-3.852-.214V7.668c1.337-.268 2.889-.32 4.495-.32 5.137 0 8.134 2.73 8.134 6.69 0 4.495-2.941 7.224-8.777 7.224zM269.037 25.06c4.869-2.14 7.65-6.259 7.65-11.347 0-6.955-4.921-12.36-16.052-12.36-3.96 0-7.226.268-10.33.644V40.85h6.69V26.666c1.284.054 2.622.107 3.906.107.749 0 1.392 0 2.087-.053l8.564 14.13h7.76l-10.275-15.79zm-8.188-3.798c-1.286 0-2.624-.057-3.854-.214V7.668c1.338-.268 2.89-.32 4.495-.32 5.139 0 8.136 2.73 8.136 6.69 0 4.495-2.945 7.224-8.777 7.224zM225.856 1.086L207.767 40.85h6.902l3.802-8.991h15.518l3.804 8.99h7.061L226.82 1.087h-.964zm.374 12.364l5.566 13.11h-11.13l5.564-13.11zM192.969 7.24c3.478 0 7.33 1.231 10.435 2.997l2.3-5.674c-3.315-2.03-7.76-3.586-12.628-3.586-12.31 0-21.14 8.67-21.14 20.285 0 11.665 8.72 20.23 21.14 20.23 2.785 0 5.5-.527 7.926-1.366l3.694-8.244c-1.88 1.212-4.674 2.263-6.181 2.663-1.74.46-3.755.684-5.387.684-8.617 0-14.021-5.722-14.021-13.967 0-8.295 5.246-14.022 13.862-14.022M303.18 36.923c.352.185.704.345 1.057.479.352.134.72.247 1.104.337.384.09.788.158 1.214.202.425.044.89.066 1.392.066.718 0 1.353-.092 1.904-.274a3.716 3.716 0 0 0 1.386-.797c.372-.348.653-.776.842-1.283.19-.507.285-1.086.285-1.74 0-.647-.095-1.223-.285-1.728a3.297 3.297 0 0 0-.842-1.277 3.685 3.685 0 0 0-1.386-.787c-.55-.177-1.186-.267-1.904-.267-.503 0-.967.02-1.392.062-.426.042-.83.108-1.214.195a8.191 8.191 0 0 0-1.104.338 9.43 9.43 0 0 0-1.058.49v5.984zm-4.253 3.928V21.237h4.252v7.103a8.05 8.05 0 0 1 2.493-1.326 9.876 9.876 0 0 1 1.524-.364c.54-.086 1.108-.13 1.703-.13 1.225 0 2.321.167 3.286.497.966.33 1.782.806 2.45 1.428a6.134 6.134 0 0 1 1.531 2.275c.353.895.53 1.907.53 3.035 0 1.138-.183 2.169-.546 3.095a6.56 6.56 0 0 1-1.58 2.377c-.69.659-1.536 1.168-2.534 1.524-.998.358-2.134.536-3.409.536-.603 0-1.183-.041-1.738-.123a9.795 9.795 0 0 1-1.567-.356 8.075 8.075 0 0 1-1.356-.566 6.124 6.124 0 0 1-1.11-.747l-.57 1.356h-3.359zM318.183 43.45c.26.056.563.103.912.138a11.577 11.577 0 0 0 2.142.003 6.88 6.88 0 0 0 .978-.165 5.52 5.52 0 0 0 .903-.308 4.086 4.086 0 0 0 1.497-1.137c.212-.256.396-.552.555-.886l.14-.27-7.015-13.868h4.603l3.786 7.962c.163.34.321.674.476 1.002.154.328.312.662.475 1.002l.467-.99.474-1.002 3.778-7.974h4.41l-7.23 14.33a16.194 16.194 0 0 1-1.08 1.835c-.369.531-.756 1-1.165 1.408a8.223 8.223 0 0 1-1.279 1.052 8.281 8.281 0 0 1-1.428.75 8.711 8.711 0 0 1-1.749.49 12.31 12.31 0 0 1-2.776.158 8.367 8.367 0 0 1-.707-.076 5.384 5.384 0 0 1-.7-.149 3.06 3.06 0 0 1-.467-.165v-3.14zM360.355 28.524c-.26-.516-.519-1.024-.774-1.527-.256-.503-.51-1.014-.767-1.535-.26.521-.519 1.037-.773 1.548a557.02 557.02 0 0 1-.774 1.54l-2.433 4.854h7.962l-2.44-4.88zm6.152 12.326l-2.117-4.06h-11.18l-2.09 4.06h-4.847l10.293-19.613h4.55l10.291 19.613h-4.9zM386.504 40.85l-.291-1.514a5.802 5.802 0 0 1-1.091.778 8.634 8.634 0 0 1-1.348.6c-.486.17-1 .305-1.541.404a10.67 10.67 0 0 1-1.654.17c-.6 0-1.184-.04-1.755-.113a7.828 7.828 0 0 1-1.617-.384 5.73 5.73 0 0 1-1.402-.724 4.373 4.373 0 0 1-1.101-1.135 5.471 5.471 0 0 1-.718-1.62c-.171-.625-.257-1.35-.257-2.175v-8.18h4.252v7.637c0 .582.068 1.09.205 1.523.136.43.35.79.644 1.074.293.283.669.495 1.128.634.458.139 1.01.208 1.653.208.432 0 .842-.026 1.23-.077.388-.05.76-.123 1.114-.22a7.324 7.324 0 0 0 1.028-.364c.332-.145.66-.313.986-.502v-9.913h4.252V40.85h-3.717zM407.856 30.885a9.613 9.613 0 0 0-1.059-.48 8.68 8.68 0 0 0-1.103-.336 9.665 9.665 0 0 0-1.214-.202c-.426-.044-.89-.066-1.392-.066-.718 0-1.352.092-1.9.274a3.706 3.706 0 0 0-1.383.797 3.318 3.318 0 0 0-.843 1.284c-.19.506-.285 1.083-.285 1.732 0 .652.095 1.23.285 1.735.19.505.47.93.843 1.277.372.345.833.608 1.382.787.55.178 1.183.267 1.901.267.502 0 .966-.02 1.392-.062.426-.042.83-.108 1.214-.195a8.077 8.077 0 0 0 1.103-.337 9.2 9.2 0 0 0 1.06-.491v-5.984zm.535 9.966l-.29-1.574a6.302 6.302 0 0 1-1.138.82c-.432.247-.9.458-1.405.635-.505.175-1.037.312-1.597.41-.56.097-1.13.145-1.712.145-1.24 0-2.348-.171-3.327-.512-.978-.342-1.807-.831-2.486-1.468a6.317 6.317 0 0 1-1.558-2.328c-.359-.914-.539-1.946-.539-3.091 0-1.142.184-2.168.55-3.078.365-.91.9-1.684 1.6-2.32.701-.633 1.561-1.121 2.582-1.46 1.02-.34 2.187-.51 3.502-.51.515 0 1.021.032 1.517.094.495.062.97.15 1.421.267.452.117.877.26 1.274.427.396.168.754.357 1.071.569v-6.64h4.252v19.614h-3.717zM417.418 40.851h4.252V26.957h-4.252v13.894zm0-15.924h4.252v-3.69h-4.252v3.69z"/></g></g></svg>